<svg width="15" height="15" viewBox="0 0 15 15" fill="none" xmlns="http://www.w3.org/2000/svg">
<path d="M2.8592 7.58161C2.5821 7.88949 2.60706 8.36371 2.91494 8.6408C3.22283 8.9179 3.69704 8.89294 3.97414 8.58506L3.41667 8.08333L2.8592 7.58161ZM7.41667 6.75V6V6.75ZM14.8333 8.75C14.8333 8.33579 14.4975 8 14.0833 8C13.6691 8 13.3333 8.33579 13.3333 8.75H14.0833H14.8333ZM8.75 13.3333C8.33579 13.3333 8 13.6691 8 14.0833C8 14.4975 8.33579 14.8333 8.75 14.8333V14.0833V13.3333ZM6.08333 14.8333C6.49755 14.8333 6.83333 14.4975 6.83333 14.0833C6.83333 13.6691 6.49755 13.3333 6.08333 13.3333V14.0833V14.8333ZM1.5 8.75C1.5 8.33579 1.16421 8 0.75 8C0.335786 8 0 8.33579 0 8.75H0.75H1.5ZM6.08333 1.5C6.49755 1.5 6.83333 1.16421 6.83333 0.75C6.83333 0.335786 6.49755 0 6.08333 0V0.75V1.5ZM0 6.08333C0 6.49755 0.335786 6.83333 0.75 6.83333C1.16421 6.83333 1.5 6.49755 1.5 6.08333H0.75H0ZM8.75 0C8.33579 0 8 0.335786 8 0.75C8 1.16421 8.33579 1.5 8.75 1.5V0.75V0ZM13.3333 6.08333C13.3333 6.49755 13.6691 6.83333 14.0833 6.83333C14.4975 6.83333 14.8333 6.49755 14.8333 6.08333H14.0833H13.3333ZM3.41667 8.08333C3.97414 8.58506 3.97386 8.58537 3.97358 8.58567C3.9735 8.58577 3.97322 8.58607 3.97305 8.58626C3.97271 8.58664 3.97238 8.587 3.97207 8.58735C3.97145 8.58803 3.9709 8.58863 3.97041 8.58916C3.96945 8.59022 3.96875 8.59096 3.96834 8.5914C3.96751 8.59229 3.96778 8.59198 3.96917 8.59055C3.97195 8.58769 3.97918 8.58035 3.99094 8.56915C4.01448 8.54673 4.05608 8.50894 4.11644 8.46065C4.23713 8.3641 4.43265 8.2257 4.7089 8.08403C5.25776 7.80257 6.14092 7.5 7.41667 7.5V6.75V6C5.89241 6 4.77557 6.3641 4.02443 6.7493C3.65068 6.94097 3.3712 7.1359 3.1794 7.28935C3.08351 7.36606 3.00948 7.43244 2.95646 7.48294C2.92994 7.50819 2.90865 7.5295 2.89248 7.54617C2.8844 7.5545 2.87759 7.56168 2.87205 7.56761C2.86928 7.57058 2.86682 7.57324 2.86468 7.57557C2.86361 7.57674 2.86262 7.57783 2.8617 7.57884C2.86125 7.57934 2.86081 7.57982 2.86039 7.58028C2.86018 7.58052 2.85988 7.58085 2.85978 7.58096C2.85949 7.58129 2.8592 7.58161 3.41667 8.08333ZM7.41667 6.75V7.5C8.69241 7.5 9.57557 7.80257 10.1244 8.08403C10.4007 8.2257 10.5962 8.3641 10.7169 8.46065C10.7773 8.50894 10.8189 8.54673 10.8424 8.56914C10.8542 8.58035 10.8614 8.58769 10.8642 8.59055C10.8656 8.59198 10.8658 8.59229 10.865 8.5914C10.8646 8.59096 10.8639 8.59021 10.8629 8.58916C10.8624 8.58863 10.8619 8.58803 10.8613 8.58734C10.861 8.587 10.8606 8.58664 10.8603 8.58626C10.8601 8.58607 10.8598 8.58577 10.8598 8.58567C10.8595 8.58537 10.8592 8.58506 11.4167 8.08333C11.9741 7.58161 11.9738 7.58129 11.9736 7.58096C11.9735 7.58085 11.9732 7.58052 11.9729 7.58028C11.9725 7.57982 11.9721 7.57934 11.9716 7.57884C11.9707 7.57783 11.9697 7.57674 11.9687 7.57557C11.9665 7.57324 11.9641 7.57058 11.9613 7.56761C11.9557 7.56168 11.9489 7.5545 11.9409 7.54617C11.9247 7.5295 11.9034 7.50819 11.8769 7.48294C11.8239 7.43244 11.7498 7.36606 11.6539 7.28935C11.4621 7.1359 11.1827 6.94097 10.8089 6.7493C10.0578 6.3641 8.94092 6 7.41667 6V6.75ZM14.0833 8.75H13.3333C13.3333 10.0283 13.3317 10.9115 13.2424 11.5761C13.1559 12.2191 12.9999 12.544 12.772 12.772L13.3023 13.3023L13.8326 13.8326C14.3857 13.2795 14.6202 12.5853 14.729 11.776C14.8349 10.9882 14.8333 9.98588 14.8333 8.75H14.0833ZM8.75 14.0833V14.8333C9.98588 14.8333 10.9882 14.8349 11.776 14.729C12.5853 14.6202 13.2795 14.3857 13.8326 13.8326L13.3023 13.3023L12.772 12.772C12.544 12.9999 12.2191 13.1559 11.5761 13.2424C10.9115 13.3317 10.0283 13.3333 8.75 13.3333V14.0833ZM6.08333 14.0833V13.3333C4.80505 13.3333 3.92179 13.3317 3.25721 13.2424C2.61421 13.1559 2.28933 12.9999 2.06138 12.772L1.53105 13.3023L1.00072 13.8326C1.55382 14.3857 2.248 14.6202 3.05734 14.729C3.8451 14.8349 4.84746 14.8333 6.08333 14.8333V14.0833ZM0.75 8.75H0C0 9.98588 -0.00159281 10.9882 0.104319 11.776C0.213131 12.5853 0.447618 13.2795 1.00072 13.8326L1.53105 13.3023L2.06138 12.772C1.83343 12.544 1.67739 12.2191 1.59094 11.5761C1.50159 10.9115 1.5 10.0283 1.5 8.75H0.75ZM6.08333 0.75V0C4.84746 0 3.8451 -0.00159281 3.05734 0.104319C2.248 0.213131 1.55382 0.447618 1.00072 1.00072L1.53105 1.53105L2.06138 2.06138C2.28933 1.83343 2.61421 1.67739 3.25721 1.59094C3.92179 1.50159 4.80505 1.5 6.08333 1.5V0.75ZM0.75 6.08333H1.5C1.5 4.80505 1.50159 3.92179 1.59094 3.25721C1.67739 2.61421 1.83343 2.28933 2.06138 2.06138L1.53105 1.53105L1.00072 1.00072C0.447618 1.55382 0.213131 2.248 0.104319 3.05734C-0.00159281 3.8451 0 4.84746 0 6.08333H0.75ZM8.75 0.75V1.5C10.0283 1.5 10.9115 1.50159 11.5761 1.59094C12.2191 1.67739 12.544 1.83343 12.772 2.06138L13.3023 1.53105L13.8326 1.00072C13.2795 0.447618 12.5853 0.213131 11.776 0.104319C10.9882 -0.00159281 9.98588 0 8.75 0V0.75ZM14.0833 6.08333H14.8333C14.8333 4.84746 14.8349 3.8451 14.729 3.05734C14.6202 2.248 14.3857 1.55382 13.8326 1.00072L13.3023 1.53105L12.772 2.06138C12.9999 2.28933 13.1559 2.61421 13.2424 3.25721C13.3317 3.92179 13.3333 4.80505 13.3333 6.08333H14.0833Z" fill="#A7BBD1"/>
</svg>
